<?xml version="1.0" encoding="UTF-8" standalone="no"?>
<!DOCTYPE svg PUBLIC "-//W3C//DTD SVG 1.1//EN" "http://www.w3.org/Graphics/SVG/1.1/DTD/svg11.dtd">
<svg width="100%" height="100%" viewBox="0 0 500 100" version="1.1" xmlns="http://www.w3.org/2000/svg" xmlns:xlink="http://www.w3.org/1999/xlink" xml:space="preserve" xmlns:serif="http://www.serif.com/" style="fill-rule:evenodd;clip-rule:evenodd;stroke-linejoin:round;stroke-miterlimit:2;">
    <g transform="matrix(0.846626,0,0,1,39.6135,1)">
        <g id="Artboard1">
            <g>
                <g transform="matrix(75.5942,0,0,64,4,69.1875)">
                    <path d="M0.195,-0.39C0.195,-0.366 0.199,-0.351 0.206,-0.345C0.212,-0.339 0.228,-0.336 0.252,-0.336L0.257,-0.336L0.261,-0.337L0.266,-0.337C0.321,-0.337 0.364,-0.35 0.393,-0.377C0.422,-0.404 0.436,-0.44 0.436,-0.486L0.436,-0.501C0.436,-0.539 0.424,-0.569 0.401,-0.591C0.378,-0.612 0.344,-0.623 0.299,-0.623L0.29,-0.623C0.254,-0.623 0.229,-0.619 0.213,-0.611C0.203,-0.606 0.198,-0.592 0.198,-0.571L0.197,-0.563L0.196,-0.548L0.196,-0.433L0.195,-0.414L0.195,-0.39ZM0.103,-0.414L0.096,-0.597C0.096,-0.645 0.105,-0.672 0.123,-0.679C0.153,-0.69 0.215,-0.696 0.31,-0.696L0.332,-0.696C0.391,-0.696 0.44,-0.681 0.479,-0.649C0.499,-0.633 0.515,-0.612 0.528,-0.586C0.54,-0.56 0.546,-0.531 0.546,-0.5L0.546,-0.489C0.546,-0.415 0.517,-0.356 0.458,-0.313C0.429,-0.292 0.382,-0.276 0.316,-0.264C0.25,-0.253 0.214,-0.243 0.208,-0.234C0.198,-0.221 0.191,-0.188 0.188,-0.135C0.184,-0.083 0.18,-0.052 0.177,-0.044C0.171,-0.025 0.158,-0.015 0.14,-0.015L0.131,-0.015C0.117,-0.015 0.106,-0.018 0.1,-0.024C0.093,-0.031 0.09,-0.041 0.09,-0.056L0.09,-0.066L0.094,-0.128C0.097,-0.16 0.098,-0.185 0.098,-0.201L0.098,-0.211C0.098,-0.219 0.099,-0.226 0.099,-0.233L0.1,-0.254C0.1,-0.269 0.101,-0.279 0.101,-0.287L0.102,-0.308L0.103,-0.36L0.103,-0.414Z" style="fill:rgb(238,42,123);fill-rule:nonzero;"/>
                </g>
                <g transform="matrix(75.5942,0,0,64,47.7029,69.1875)">
                    <path d="M0.256,-0.355C0.309,-0.355 0.349,-0.368 0.378,-0.395C0.407,-0.421 0.421,-0.456 0.421,-0.499L0.421,-0.504L0.42,-0.509C0.42,-0.54 0.411,-0.565 0.393,-0.585C0.374,-0.606 0.35,-0.616 0.319,-0.616L0.31,-0.617L0.278,-0.617C0.244,-0.617 0.22,-0.613 0.207,-0.606C0.193,-0.6 0.186,-0.587 0.186,-0.569C0.185,-0.558 0.184,-0.551 0.184,-0.547L0.183,-0.521L0.183,-0.479L0.182,-0.466L0.182,-0.434L0.181,-0.415L0.181,-0.401C0.181,-0.382 0.184,-0.369 0.189,-0.363C0.194,-0.357 0.207,-0.354 0.228,-0.354L0.244,-0.354C0.249,-0.355 0.253,-0.355 0.256,-0.355ZM0.412,-0.292C0.412,-0.275 0.434,-0.227 0.479,-0.148C0.523,-0.069 0.545,-0.029 0.545,-0.028C0.545,-0.018 0.534,-0.013 0.512,-0.013C0.49,-0.013 0.47,-0.022 0.454,-0.041C0.447,-0.048 0.426,-0.081 0.391,-0.14C0.357,-0.199 0.332,-0.236 0.316,-0.25C0.3,-0.264 0.274,-0.271 0.238,-0.271C0.216,-0.271 0.202,-0.264 0.196,-0.25C0.191,-0.237 0.187,-0.205 0.184,-0.156C0.181,-0.106 0.178,-0.074 0.174,-0.061C0.167,-0.031 0.151,-0.016 0.128,-0.016C0.105,-0.016 0.092,-0.024 0.089,-0.041C0.088,-0.046 0.087,-0.101 0.087,-0.205L0.087,-0.431C0.087,-0.45 0.087,-0.472 0.086,-0.499L0.085,-0.512L0.084,-0.538L0.083,-0.576L0.083,-0.588C0.083,-0.639 0.093,-0.67 0.115,-0.68C0.137,-0.69 0.19,-0.695 0.275,-0.695L0.303,-0.695C0.375,-0.695 0.429,-0.678 0.466,-0.646C0.503,-0.613 0.521,-0.567 0.521,-0.507C0.521,-0.448 0.499,-0.396 0.455,-0.35C0.426,-0.32 0.412,-0.301 0.412,-0.292Z" style="fill:rgb(238,42,123);fill-rule:nonzero;"/>
                </g>
                <g transform="matrix(75.5942,0,0,64,93.5097,69.1875)">
                    <path d="M0.078,-0.619C0.071,-0.627 0.067,-0.639 0.067,-0.653C0.067,-0.668 0.074,-0.677 0.089,-0.681C0.114,-0.688 0.183,-0.691 0.296,-0.691L0.313,-0.691C0.394,-0.691 0.451,-0.687 0.483,-0.679C0.502,-0.674 0.512,-0.664 0.512,-0.648C0.512,-0.624 0.5,-0.589 0.475,-0.544C0.45,-0.499 0.398,-0.421 0.32,-0.309C0.241,-0.198 0.202,-0.13 0.202,-0.106C0.202,-0.093 0.239,-0.086 0.313,-0.086L0.466,-0.09C0.511,-0.09 0.534,-0.078 0.534,-0.053L0.534,-0.041C0.534,-0.026 0.521,-0.017 0.496,-0.013C0.452,-0.006 0.366,-0.002 0.237,-0.002L0.188,-0.002C0.133,-0.002 0.098,-0.005 0.083,-0.01C0.068,-0.016 0.061,-0.029 0.061,-0.051C0.061,-0.072 0.073,-0.104 0.098,-0.146C0.148,-0.231 0.193,-0.302 0.234,-0.359C0.329,-0.494 0.377,-0.568 0.377,-0.581C0.377,-0.593 0.368,-0.6 0.35,-0.604C0.332,-0.607 0.296,-0.609 0.241,-0.609L0.12,-0.606C0.099,-0.606 0.085,-0.611 0.078,-0.619Z" style="fill:rgb(238,42,123);fill-rule:nonzero;"/>
                </g>
                <g transform="matrix(75.5942,0,0,64,137.434,69.1875)">
                    <path d="M0.487,-0.046C0.487,-0.028 0.473,-0.017 0.446,-0.013C0.399,-0.005 0.338,-0.001 0.263,-0.001L0.212,-0.001C0.15,-0.001 0.112,-0.008 0.097,-0.023C0.082,-0.038 0.074,-0.073 0.074,-0.127L0.074,-0.178C0.074,-0.234 0.077,-0.297 0.082,-0.365C0.087,-0.434 0.089,-0.498 0.089,-0.557C0.089,-0.617 0.098,-0.652 0.114,-0.662C0.145,-0.681 0.216,-0.691 0.327,-0.691L0.376,-0.691C0.412,-0.691 0.438,-0.689 0.454,-0.684C0.469,-0.68 0.477,-0.67 0.477,-0.655C0.477,-0.638 0.465,-0.626 0.441,-0.619C0.417,-0.613 0.378,-0.609 0.324,-0.606C0.271,-0.603 0.237,-0.597 0.224,-0.587C0.202,-0.571 0.192,-0.531 0.192,-0.469C0.192,-0.44 0.199,-0.423 0.214,-0.417C0.229,-0.411 0.264,-0.406 0.32,-0.402C0.375,-0.399 0.403,-0.397 0.403,-0.397C0.421,-0.393 0.429,-0.381 0.429,-0.361C0.429,-0.341 0.419,-0.328 0.4,-0.322C0.395,-0.321 0.364,-0.318 0.307,-0.313C0.25,-0.309 0.216,-0.304 0.204,-0.297C0.188,-0.288 0.179,-0.263 0.179,-0.223C0.179,-0.158 0.189,-0.117 0.209,-0.1C0.221,-0.091 0.26,-0.086 0.327,-0.086L0.404,-0.087C0.459,-0.087 0.487,-0.074 0.487,-0.046Z" style="fill:rgb(238,42,123);fill-rule:nonzero;"/>
                </g>
                <g transform="matrix(75.5942,0,0,64,179.033,69.1875)">
                    <path d="M0.475,-0.333L0.475,-0.374C0.475,-0.407 0.47,-0.441 0.46,-0.474C0.45,-0.507 0.438,-0.533 0.422,-0.552C0.388,-0.593 0.34,-0.613 0.276,-0.613L0.269,-0.613C0.222,-0.613 0.195,-0.605 0.188,-0.589C0.183,-0.579 0.181,-0.532 0.181,-0.45L0.181,-0.222L0.182,-0.207L0.182,-0.192L0.184,-0.135C0.184,-0.117 0.188,-0.104 0.195,-0.096C0.202,-0.089 0.219,-0.085 0.246,-0.085L0.274,-0.085C0.339,-0.085 0.389,-0.107 0.422,-0.15C0.437,-0.169 0.45,-0.196 0.46,-0.228C0.47,-0.261 0.475,-0.296 0.475,-0.333ZM0.249,-0.689L0.281,-0.689C0.382,-0.689 0.459,-0.661 0.51,-0.604C0.561,-0.547 0.587,-0.466 0.587,-0.36L0.587,-0.348C0.587,-0.3 0.58,-0.252 0.567,-0.205C0.543,-0.12 0.492,-0.062 0.416,-0.028C0.375,-0.01 0.33,-0.001 0.281,-0.001L0.217,-0.001C0.164,-0.001 0.126,-0.007 0.103,-0.019C0.091,-0.025 0.085,-0.044 0.085,-0.074L0.087,-0.138L0.087,-0.265L0.086,-0.286L0.086,-0.381L0.083,-0.506L0.083,-0.536L0.082,-0.587L0.082,-0.628C0.082,-0.654 0.091,-0.67 0.109,-0.676C0.138,-0.685 0.184,-0.689 0.249,-0.689Z" style="fill:rgb(238,42,123);fill-rule:nonzero;"/>
                </g>
                <g transform="matrix(75.5942,0,0,64,227.756,69.1875)">
                    <path d="M0.505,-0.182C0.505,-0.126 0.484,-0.081 0.441,-0.046C0.399,-0.012 0.347,0.005 0.287,0.005C0.227,0.005 0.179,-0.003 0.144,-0.019C0.108,-0.035 0.083,-0.053 0.068,-0.073C0.062,-0.083 0.058,-0.092 0.058,-0.102C0.058,-0.112 0.062,-0.121 0.07,-0.129C0.078,-0.137 0.086,-0.141 0.094,-0.141C0.103,-0.141 0.115,-0.137 0.13,-0.129L0.153,-0.117C0.196,-0.095 0.236,-0.084 0.273,-0.084C0.31,-0.084 0.339,-0.091 0.359,-0.104C0.386,-0.122 0.399,-0.146 0.399,-0.177C0.399,-0.209 0.385,-0.236 0.357,-0.258C0.337,-0.275 0.299,-0.295 0.245,-0.319C0.19,-0.342 0.152,-0.364 0.13,-0.385C0.093,-0.421 0.074,-0.466 0.074,-0.519C0.074,-0.571 0.094,-0.614 0.136,-0.647C0.177,-0.68 0.232,-0.697 0.3,-0.697L0.302,-0.697C0.344,-0.697 0.378,-0.691 0.406,-0.68C0.433,-0.668 0.452,-0.656 0.463,-0.643C0.473,-0.63 0.479,-0.621 0.479,-0.616C0.479,-0.601 0.475,-0.59 0.468,-0.582C0.461,-0.573 0.451,-0.569 0.439,-0.569C0.438,-0.569 0.419,-0.576 0.384,-0.59C0.349,-0.604 0.313,-0.611 0.277,-0.611C0.242,-0.611 0.213,-0.599 0.192,-0.575C0.183,-0.563 0.176,-0.549 0.174,-0.533C0.173,-0.53 0.173,-0.526 0.173,-0.522C0.173,-0.509 0.177,-0.496 0.184,-0.481C0.197,-0.457 0.238,-0.43 0.309,-0.399C0.379,-0.368 0.425,-0.341 0.448,-0.32C0.486,-0.285 0.505,-0.244 0.505,-0.198L0.505,-0.182Z" style="fill:rgb(88,32,188);fill-rule:nonzero;"/>
                </g>
                <g transform="matrix(75.5942,0,0,64,269.872,69.1875)">
                    <path d="M0.078,-0.619C0.071,-0.627 0.067,-0.639 0.067,-0.653C0.067,-0.668 0.074,-0.677 0.089,-0.681C0.114,-0.688 0.183,-0.691 0.296,-0.691L0.313,-0.691C0.394,-0.691 0.451,-0.687 0.483,-0.679C0.502,-0.674 0.512,-0.664 0.512,-0.648C0.512,-0.624 0.5,-0.589 0.475,-0.544C0.45,-0.499 0.398,-0.421 0.32,-0.309C0.241,-0.198 0.202,-0.13 0.202,-0.106C0.202,-0.093 0.239,-0.086 0.313,-0.086L0.466,-0.09C0.511,-0.09 0.534,-0.078 0.534,-0.053L0.534,-0.041C0.534,-0.026 0.521,-0.017 0.496,-0.013C0.452,-0.006 0.366,-0.002 0.237,-0.002L0.188,-0.002C0.133,-0.002 0.098,-0.005 0.083,-0.01C0.068,-0.016 0.061,-0.029 0.061,-0.051C0.061,-0.072 0.073,-0.104 0.098,-0.146C0.148,-0.231 0.193,-0.302 0.234,-0.359C0.329,-0.494 0.377,-0.568 0.377,-0.581C0.377,-0.593 0.368,-0.6 0.35,-0.604C0.332,-0.607 0.296,-0.609 0.241,-0.609L0.12,-0.606C0.099,-0.606 0.085,-0.611 0.078,-0.619Z" style="fill:rgb(88,32,188);fill-rule:nonzero;"/>
                </g>
                <g transform="matrix(75.5942,0,0,64,313.796,69.1875)">
                    <path d="M0.171,-0.05C0.163,-0.027 0.149,-0.016 0.13,-0.016C0.111,-0.016 0.098,-0.022 0.093,-0.034C0.09,-0.041 0.088,-0.056 0.088,-0.078L0.088,-0.111L0.091,-0.198L0.091,-0.338L0.09,-0.373L0.089,-0.442L0.088,-0.493L0.088,-0.558C0.088,-0.614 0.091,-0.647 0.097,-0.658C0.103,-0.669 0.116,-0.675 0.137,-0.675C0.158,-0.675 0.172,-0.659 0.18,-0.628C0.185,-0.606 0.188,-0.565 0.19,-0.505C0.192,-0.445 0.2,-0.415 0.212,-0.415C0.227,-0.415 0.264,-0.449 0.321,-0.519C0.379,-0.588 0.413,-0.628 0.424,-0.638C0.449,-0.661 0.473,-0.673 0.495,-0.673C0.516,-0.673 0.527,-0.668 0.527,-0.657C0.527,-0.65 0.497,-0.606 0.437,-0.526C0.377,-0.446 0.347,-0.397 0.347,-0.377C0.347,-0.372 0.383,-0.312 0.454,-0.198C0.526,-0.084 0.562,-0.026 0.562,-0.024C0.562,-0.014 0.554,-0.009 0.538,-0.009L0.523,-0.009C0.502,-0.009 0.482,-0.018 0.463,-0.038C0.443,-0.057 0.418,-0.092 0.387,-0.141C0.357,-0.191 0.334,-0.225 0.32,-0.242C0.293,-0.276 0.27,-0.292 0.253,-0.292C0.235,-0.292 0.219,-0.278 0.205,-0.249C0.195,-0.23 0.189,-0.196 0.185,-0.147C0.181,-0.098 0.177,-0.065 0.171,-0.05Z" style="fill:rgb(88,32,188);fill-rule:nonzero;"/>
                </g>
                <g transform="matrix(75.5942,0,0,64,358.385,69.1875)">
                    <path d="M0.153,-0.351L0.153,-0.318C0.153,-0.281 0.158,-0.247 0.166,-0.216C0.182,-0.157 0.21,-0.116 0.249,-0.094C0.271,-0.08 0.296,-0.074 0.323,-0.074L0.338,-0.074C0.364,-0.074 0.387,-0.081 0.408,-0.094C0.471,-0.135 0.502,-0.216 0.502,-0.338L0.502,-0.37C0.502,-0.442 0.488,-0.501 0.459,-0.547C0.447,-0.568 0.43,-0.584 0.41,-0.597C0.39,-0.609 0.368,-0.615 0.347,-0.615L0.324,-0.615C0.299,-0.615 0.275,-0.608 0.253,-0.594C0.231,-0.579 0.213,-0.563 0.201,-0.543C0.188,-0.524 0.177,-0.498 0.167,-0.464C0.158,-0.43 0.153,-0.392 0.153,-0.351ZM0.611,-0.372L0.611,-0.339C0.611,-0.288 0.605,-0.241 0.592,-0.196C0.58,-0.15 0.562,-0.114 0.539,-0.086C0.515,-0.058 0.486,-0.036 0.451,-0.018C0.416,-0 0.38,0.008 0.344,0.008L0.311,0.008C0.277,0.008 0.243,0 0.209,-0.015C0.142,-0.046 0.096,-0.105 0.071,-0.194C0.061,-0.232 0.056,-0.277 0.056,-0.329L0.056,-0.34C0.056,-0.388 0.063,-0.435 0.075,-0.481C0.101,-0.576 0.149,-0.639 0.221,-0.672C0.254,-0.687 0.289,-0.694 0.327,-0.694L0.349,-0.694C0.382,-0.694 0.417,-0.687 0.452,-0.672C0.518,-0.643 0.564,-0.588 0.591,-0.506C0.604,-0.465 0.611,-0.42 0.611,-0.372Z" style="fill:rgb(88,32,188);fill-rule:nonzero;"/>
                </g>
                <g transform="matrix(75.5942,0,0,64,408.953,69.1875)">
                    <path d="M0.436,-0.086C0.473,-0.086 0.492,-0.072 0.492,-0.044L0.492,-0.035C0.492,-0.02 0.485,-0.011 0.472,-0.006C0.458,-0.002 0.434,-0 0.399,-0L0.287,-0C0.177,-0 0.115,-0.006 0.1,-0.016C0.085,-0.026 0.078,-0.062 0.078,-0.125L0.078,-0.213L0.079,-0.269L0.079,-0.358L0.08,-0.38L0.08,-0.434L0.079,-0.466L0.079,-0.563L0.078,-0.626C0.078,-0.653 0.08,-0.67 0.085,-0.677C0.089,-0.684 0.1,-0.688 0.118,-0.688C0.135,-0.688 0.148,-0.685 0.157,-0.679C0.166,-0.674 0.173,-0.663 0.176,-0.647C0.179,-0.632 0.181,-0.545 0.181,-0.387C0.181,-0.229 0.187,-0.138 0.198,-0.115C0.204,-0.102 0.218,-0.094 0.24,-0.09C0.261,-0.086 0.295,-0.084 0.343,-0.084L0.375,-0.084C0.382,-0.085 0.389,-0.085 0.396,-0.085L0.416,-0.086L0.436,-0.086Z" style="fill:rgb(88,32,188);fill-rule:nonzero;"/>
                </g>
                <g transform="matrix(75.5942,0,0,64,447.968,69.1875)">
                    <path d="M0.487,-0.046C0.487,-0.028 0.473,-0.017 0.446,-0.013C0.399,-0.005 0.338,-0.001 0.263,-0.001L0.212,-0.001C0.15,-0.001 0.112,-0.008 0.097,-0.023C0.082,-0.038 0.074,-0.073 0.074,-0.127L0.074,-0.178C0.074,-0.234 0.077,-0.297 0.082,-0.365C0.087,-0.434 0.089,-0.498 0.089,-0.557C0.089,-0.617 0.098,-0.652 0.114,-0.662C0.145,-0.681 0.216,-0.691 0.327,-0.691L0.376,-0.691C0.412,-0.691 0.438,-0.689 0.454,-0.684C0.469,-0.68 0.477,-0.67 0.477,-0.655C0.477,-0.638 0.465,-0.626 0.441,-0.619C0.417,-0.613 0.378,-0.609 0.324,-0.606C0.271,-0.603 0.237,-0.597 0.224,-0.587C0.202,-0.571 0.192,-0.531 0.192,-0.469C0.192,-0.44 0.199,-0.423 0.214,-0.417C0.229,-0.411 0.264,-0.406 0.32,-0.402C0.375,-0.399 0.403,-0.397 0.403,-0.397C0.421,-0.393 0.429,-0.381 0.429,-0.361C0.429,-0.341 0.419,-0.328 0.4,-0.322C0.395,-0.321 0.364,-0.318 0.307,-0.313C0.25,-0.309 0.216,-0.304 0.204,-0.297C0.188,-0.288 0.179,-0.263 0.179,-0.223C0.179,-0.158 0.189,-0.117 0.209,-0.1C0.221,-0.091 0.26,-0.086 0.327,-0.086L0.404,-0.087C0.459,-0.087 0.487,-0.074 0.487,-0.046Z" style="fill:rgb(88,32,188);fill-rule:nonzero;"/>
                </g>
            </g>
        </g>
    </g>
</svg>
